<svg width="51" height="50" viewBox="0 0 51 50" fill="none" xmlns="http://www.w3.org/2000/svg">
<circle opacity="0.2" cx="26" cy="25" r="25" fill="#F27A36"/>
<path fill-rule="evenodd" clip-rule="evenodd" d="M25.1635 17.6432H25.3278C27.4869 17.6432 29.2393 19.4771 29.2393 21.7266V26.2256C29.2393 28.4751 27.4869 30.3008 25.3278 30.3008H17.9115C15.7524 30.3008 14 28.4751 14 26.2256V21.7266C14 19.4771 15.7524 17.6432 17.9115 17.6432H18.0758C18.0915 16.6652 18.4591 15.7523 19.1241 15.0677C19.7969 14.3749 20.6574 14.0245 21.6275 14C23.5676 14 25.14 15.6301 25.1635 17.6432ZM19.9458 15.9394C19.5077 16.3958 19.2652 16.999 19.2495 17.6429H23.9903C23.9668 16.3062 22.9185 15.2222 21.6277 15.2222C21.0254 15.2222 20.3995 15.4748 19.9458 15.9394Z" fill="url(#paint0_linear_7_153)"/>
<g opacity="0.5" filter="url(#filter0_f_7_153)">
<path d="M19.6004 27.9954L23.6087 27.9954C25.0627 27.9954 25.9092 27.2876 25.9092 26.0748L25.9092 21.9672C25.9092 20.7346 25.0627 20.0427 23.6087 20.0427L19.6004 20.0427C18.123 20.0427 17.3004 20.7346 17.3004 21.9672L17.3004 26.0748C17.3004 27.2876 18.123 27.9954 19.6004 27.9954Z" fill="#FA452D"/>
</g>
<g filter="url(#filter1_bd_7_153)">
<path d="M32.8805 20.1812C32.8834 20.2532 32.8459 21.7195 32.8169 21.7853H31.5047C31.4793 21.7184 31.4658 20.0278 31.465 19.9561C31.465 18.177 30.0408 16.7348 28.2839 16.7348C26.5271 16.7348 25.1029 18.177 25.1029 19.9561C25.1149 20.0254 25.1149 21.716 25.1029 21.7853H23.7589C23.7469 21.716 23.7469 20.0254 23.7589 19.9561C23.861 17.4803 25.8727 15.5264 28.3197 15.5264C30.7667 15.5264 32.7784 17.4803 32.8805 19.9561V20.1812Z" fill="url(#paint1_linear_7_153)"/>
<path d="M32.7804 20.1812H32.7805V19.9582C32.6796 17.5358 30.7113 15.6264 28.3197 15.6264C25.9275 15.6264 23.9588 17.5369 23.8588 19.9603L23.8583 19.9734L23.8576 19.9733C23.8575 19.9756 23.8571 19.9812 23.8567 19.9914C23.8561 20.0067 23.8555 20.0277 23.8549 20.0539C23.8538 20.1063 23.8529 20.1778 23.8521 20.2623C23.8506 20.4312 23.8499 20.6509 23.8499 20.8707C23.8499 21.0905 23.8506 21.3102 23.8521 21.4791C23.8529 21.5624 23.8538 21.6331 23.8549 21.6853H25.0069C25.008 21.6331 25.0089 21.5624 25.0097 21.4791C25.0112 21.3102 25.0119 21.0905 25.0119 20.8707C25.0119 20.6509 25.0112 20.4312 25.0097 20.2623C25.0089 20.1778 25.008 20.1063 25.0069 20.0539C25.0063 20.0277 25.0057 20.0067 25.0051 19.9914C25.0045 19.9771 25.004 19.972 25.0041 19.9719C25.0041 19.9719 25.0042 19.9722 25.0043 19.9727L25.0029 19.9648V19.9561C25.0029 18.123 26.4707 16.6348 28.2839 16.6348C30.097 16.6348 31.5646 18.1226 31.565 19.9555M32.7804 20.1812L31.465 19.9561M32.7804 20.1812L32.7806 20.1852C32.7806 20.1851 32.7806 20.1856 32.7806 20.187L32.7807 20.1922L32.7806 20.2095L32.7798 20.2664C32.779 20.3132 32.7777 20.3764 32.7759 20.4506C32.7723 20.5989 32.767 20.7907 32.7607 20.9823C32.7544 21.174 32.7471 21.365 32.7396 21.5119C32.7361 21.5817 32.7325 21.6409 32.729 21.6853M32.7804 20.1812L32.729 21.6853M31.565 19.9555C31.565 19.9557 31.565 19.9559 31.565 19.9561H31.465M31.565 19.9555C31.565 19.9553 31.565 19.9551 31.565 19.9549L31.465 19.9561M31.565 19.9555C31.565 19.9624 31.5652 19.9806 31.5655 20.0082C31.5667 20.1439 31.5701 20.5073 31.5756 20.871C31.579 21.0908 31.583 21.3101 31.5879 21.4785C31.5903 21.5627 31.5929 21.6336 31.5956 21.6851C31.5956 21.6852 31.5956 21.6852 31.5956 21.6853M31.465 19.9561C31.465 19.9623 31.4652 19.9803 31.4655 20.0083C31.4682 20.306 31.4815 21.7241 31.5047 21.7853M31.5956 21.6853H31.5047V21.7853M31.5956 21.6853H32.729M31.5956 21.6853C31.597 21.7111 31.5984 21.7311 31.5997 21.7452C31.6003 21.7524 31.6009 21.757 31.6013 21.7596C31.6021 21.7648 31.6016 21.7588 31.5982 21.7497L31.5047 21.7853M31.5047 21.7853L32.729 21.6853" stroke="url(#paint2_linear_7_153)" stroke-opacity="0.5" stroke-width="0.2"/>
</g>
<g filter="url(#filter2_b_7_153)">
<path d="M18.8004 25.1975C18.8004 22.3634 21.0082 20.053 23.7284 20.053H33.072C35.7923 20.053 38 22.3634 38 25.1975V30.8657C38 33.6998 35.7923 35.9999 33.072 35.9999H23.7284C21.0082 35.9999 18.8004 33.6998 18.8004 30.8657V25.1975Z" fill="#FFAC95" fill-opacity="0.4"/>
<path d="M23.7284 19.553C20.7116 19.553 18.3004 22.1081 18.3004 25.1975V30.8657C18.3004 33.9564 20.7129 36.4999 23.7284 36.4999H33.072C36.0875 36.4999 38.5 33.9564 38.5 30.8657V25.1975C38.5 22.1081 36.0888 19.553 33.072 19.553H23.7284Z" stroke="url(#paint3_linear_7_153)" stroke-linecap="round" stroke-linejoin="round"/>
</g>
<g filter="url(#filter3_bd_7_153)">
<mask id="path-8-inside-1_7_153" fill="white">
<path fill-rule="evenodd" clip-rule="evenodd" d="M24.5665 24.5449C24.9804 24.5449 25.3057 24.1958 25.3057 23.7748V22.5836C25.3057 22.1626 24.9804 21.8135 24.5665 21.8135C24.1624 21.8135 23.8273 22.1626 23.8273 22.5836V23.7748C23.8273 24.1958 24.1624 24.5449 24.5665 24.5449ZM32.1463 24.545C32.5602 24.545 32.8855 24.1958 32.8855 23.7748V22.5837C32.8855 22.1627 32.5602 21.8136 32.1463 21.8136C31.7422 21.8136 31.4071 22.1627 31.4071 22.5837V23.7748C31.4071 24.1958 31.7422 24.545 32.1463 24.545Z"/>
</mask>
<path fill-rule="evenodd" clip-rule="evenodd" d="M24.5665 24.5449C24.9804 24.5449 25.3057 24.1958 25.3057 23.7748V22.5836C25.3057 22.1626 24.9804 21.8135 24.5665 21.8135C24.1624 21.8135 23.8273 22.1626 23.8273 22.5836V23.7748C23.8273 24.1958 24.1624 24.5449 24.5665 24.5449ZM32.1463 24.545C32.5602 24.545 32.8855 24.1958 32.8855 23.7748V22.5837C32.8855 22.1627 32.5602 21.8136 32.1463 21.8136C31.7422 21.8136 31.4071 22.1627 31.4071 22.5837V23.7748C31.4071 24.1958 31.7422 24.545 32.1463 24.545Z" fill="url(#paint4_linear_7_153)"/>
<path d="M25.1057 23.7748C25.1057 24.0949 24.8606 24.3449 24.5665 24.3449V24.7449C25.1002 24.7449 25.5057 24.2966 25.5057 23.7748H25.1057ZM25.1057 22.5836V23.7748H25.5057V22.5836H25.1057ZM24.5665 22.0135C24.8606 22.0135 25.1057 22.2635 25.1057 22.5836H25.5057C25.5057 22.0617 25.1002 21.6135 24.5665 21.6135V22.0135ZM24.0273 22.5836C24.0273 22.2653 24.2805 22.0135 24.5665 22.0135V21.6135C24.0443 21.6135 23.6273 22.06 23.6273 22.5836H24.0273ZM24.0273 23.7748V22.5836H23.6273V23.7748H24.0273ZM24.5665 24.3449C24.2805 24.3449 24.0273 24.0931 24.0273 23.7748H23.6273C23.6273 24.2984 24.0443 24.7449 24.5665 24.7449V24.3449ZM32.6855 23.7748C32.6855 24.095 32.4404 24.345 32.1463 24.345V24.745C32.68 24.745 33.0855 24.2967 33.0855 23.7748H32.6855ZM32.6855 22.5837V23.7748H33.0855V22.5837H32.6855ZM32.1463 22.0136C32.4404 22.0136 32.6855 22.2636 32.6855 22.5837H33.0855C33.0855 22.0618 32.68 21.6136 32.1463 21.6136V22.0136ZM31.6071 22.5837C31.6071 22.2653 31.8603 22.0136 32.1463 22.0136V21.6136C31.6241 21.6136 31.2071 22.06 31.2071 22.5837H31.6071ZM31.6071 23.7748V22.5837H31.2071V23.7748H31.6071ZM32.1463 24.345C31.8603 24.345 31.6071 24.0932 31.6071 23.7748H31.2071C31.2071 24.2985 31.6241 24.745 32.1463 24.745V24.345Z" fill="url(#paint5_linear_7_153)" fill-opacity="0.5" mask="url(#path-8-inside-1_7_153)"/>
</g>
<defs>
<filter id="filter0_f_7_153" x="0.300415" y="3.04272" width="42.6088" height="41.9526" filterUnits="userSpaceOnUse" color-interpolation-filters="sRGB">
<feFlood flood-opacity="0" result="BackgroundImageFix"/>
<feBlend mode="normal" in="SourceGraphic" in2="BackgroundImageFix" result="shape"/>
<feGaussianBlur stdDeviation="8.5" result="effect1_foregroundBlur_7_153"/>
</filter>
<filter id="filter1_bd_7_153" x="8.74988" y="0.526367" width="39.1309" height="36.2588" filterUnits="userSpaceOnUse" color-interpolation-filters="sRGB">
<feFlood flood-opacity="0" result="BackgroundImageFix"/>
<feGaussianBlur in="BackgroundImage" stdDeviation="7.5"/>
<feComposite in2="SourceAlpha" operator="in" result="effect1_backgroundBlur_7_153"/>
<feColorMatrix in="SourceAlpha" type="matrix" values="0 0 0 0 0 0 0 0 0 0 0 0 0 0 0 0 0 0 127 0" result="hardAlpha"/>
<feOffset dx="5" dy="5"/>
<feGaussianBlur stdDeviation="5"/>
<feColorMatrix type="matrix" values="0 0 0 0 1 0 0 0 0 0.447059 0 0 0 0 0.368627 0 0 0 0.5 0"/>
<feBlend mode="normal" in2="effect1_backgroundBlur_7_153" result="effect2_dropShadow_7_153"/>
<feBlend mode="normal" in="SourceGraphic" in2="effect2_dropShadow_7_153" result="shape"/>
</filter>
<filter id="filter2_b_7_153" x="2.80042" y="4.05298" width="51.1996" height="47.947" filterUnits="userSpaceOnUse" color-interpolation-filters="sRGB">
<feFlood flood-opacity="0" result="BackgroundImageFix"/>
<feGaussianBlur in="BackgroundImage" stdDeviation="7.5"/>
<feComposite in2="SourceAlpha" operator="in" result="effect1_backgroundBlur_7_153"/>
<feBlend mode="normal" in="SourceGraphic" in2="effect1_backgroundBlur_7_153" result="shape"/>
</filter>
<filter id="filter3_bd_7_153" x="8.82727" y="6.81348" width="39.0582" height="32.7314" filterUnits="userSpaceOnUse" color-interpolation-filters="sRGB">
<feFlood flood-opacity="0" result="BackgroundImageFix"/>
<feGaussianBlur in="BackgroundImage" stdDeviation="7.5"/>
<feComposite in2="SourceAlpha" operator="in" result="effect1_backgroundBlur_7_153"/>
<feColorMatrix in="SourceAlpha" type="matrix" values="0 0 0 0 0 0 0 0 0 0 0 0 0 0 0 0 0 0 127 0" result="hardAlpha"/>
<feOffset dx="5" dy="5"/>
<feGaussianBlur stdDeviation="5"/>
<feColorMatrix type="matrix" values="0 0 0 0 1 0 0 0 0 0.447059 0 0 0 0 0.368627 0 0 0 0.5 0"/>
<feBlend mode="normal" in2="effect1_backgroundBlur_7_153" result="effect2_dropShadow_7_153"/>
<feBlend mode="normal" in="SourceGraphic" in2="effect2_dropShadow_7_153" result="shape"/>
</filter>
<linearGradient id="paint0_linear_7_153" x1="22.7416" y1="23.242" x2="9.02038" y2="29.4791" gradientUnits="userSpaceOnUse">
<stop stop-color="#FFA78F"/>
<stop offset="1" stop-color="#F23E2C"/>
</linearGradient>
<linearGradient id="paint1_linear_7_153" x1="32.2333" y1="16.6566" x2="22.0746" y2="17.1398" gradientUnits="userSpaceOnUse">
<stop stop-color="white"/>
<stop offset="1" stop-color="white" stop-opacity="0.2"/>
</linearGradient>
<linearGradient id="paint2_linear_7_153" x1="32.4895" y1="18.7882" x2="23.6296" y2="19.3267" gradientUnits="userSpaceOnUse">
<stop stop-color="white"/>
<stop offset="1" stop-color="white" stop-opacity="0"/>
</linearGradient>
<linearGradient id="paint3_linear_7_153" x1="21.8567" y1="21.9108" x2="31.4841" y2="36.2666" gradientUnits="userSpaceOnUse">
<stop stop-color="white" stop-opacity="0.25"/>
<stop offset="1" stop-color="white" stop-opacity="0"/>
</linearGradient>
<linearGradient id="paint4_linear_7_153" x1="32.2433" y1="22.3067" x2="22.2593" y2="23.3862" gradientUnits="userSpaceOnUse">
<stop stop-color="white"/>
<stop offset="1" stop-color="white" stop-opacity="0.2"/>
</linearGradient>
<linearGradient id="paint5_linear_7_153" x1="32.4974" y1="23.237" x2="23.8407" y2="24.4329" gradientUnits="userSpaceOnUse">
<stop stop-color="white"/>
<stop offset="1" stop-color="white" stop-opacity="0"/>
</linearGradient>
</defs>
</svg>
