<svg width="50" height="50" viewBox="0 0 50 50" fill="none" xmlns="http://www.w3.org/2000/svg">
<circle opacity="0.2" cx="25" cy="25" r="25" fill="#9436F2"/>
<path fill-rule="evenodd" clip-rule="evenodd" d="M14.4084 19.5515H24.8271C25.6052 19.5515 26.2355 20.1841 26.2355 20.9651V21.9526C26.2355 22.3315 26.0835 22.6953 25.8137 22.9607L21.5088 27.2035C21.475 27.2371 21.4356 27.264 21.393 27.2831V30.6005C21.393 30.8016 21.2758 30.9835 21.0932 31.0676L18.1769 32.4019C18.1088 32.4326 18.0366 32.4477 17.9643 32.4477C17.8683 32.4477 17.7722 32.4203 17.6884 32.3663C17.5419 32.2719 17.4533 32.1092 17.4533 31.9348V27.2672C17.4098 27.2461 17.37 27.217 17.3362 27.1809L13.3802 22.9415C13.1356 22.6796 13 22.3335 13 21.9745V20.9658C13 20.1848 13.6303 19.5515 14.4084 19.5515Z" fill="url(#paint0_linear_7_963)"/>
<g filter="url(#filter0_f_7_963)">
<rect width="5.92359" height="3.94906" rx="1.97453" transform="matrix(0.716228 0.697867 -0.716228 0.697867 20 18.8975)" fill="#8237FF" fill-opacity="0.5"/>
</g>
<g filter="url(#filter1_b_7_963)">
<mask id="path-4-outside-1_7_963" maskUnits="userSpaceOnUse" x="16.5" y="14" width="22" height="21" fill="black">
<rect fill="white" x="16.5" y="14" width="22" height="21"/>
<path fill-rule="evenodd" clip-rule="evenodd" d="M19.575 15H34.925C36.0714 15 36.9999 15.932 36.9999 17.0826V18.5376C36.9999 19.0958 36.7761 19.6318 36.3786 20.0227L30.0362 26.2737C29.9268 26.3825 29.7782 26.443 29.6246 26.442L24.3142 26.4258C24.1526 26.4258 23.999 26.3583 23.8886 26.2405L18.0602 19.9945C17.6998 19.6086 17.5 19.0988 17.5 18.5698V17.0837C17.5 15.933 18.4286 15 19.575 15ZM24.5984 28.1329L29.3316 28.147C29.6267 28.148 29.8656 28.3888 29.8656 28.6841V31.2786C29.8656 31.5748 29.6929 31.8428 29.4239 31.9667L25.1274 33.9325C25.027 33.9778 24.9206 34 24.8142 34C24.6727 34 24.5311 33.9597 24.4076 33.8801C24.1918 33.7411 24.0613 33.5013 24.0613 33.2443V28.67C24.0613 28.3727 24.3022 28.1319 24.5984 28.1329Z"/>
</mask>
<path fill-rule="evenodd" clip-rule="evenodd" d="M19.575 15H34.925C36.0714 15 36.9999 15.932 36.9999 17.0826V18.5376C36.9999 19.0958 36.7761 19.6318 36.3786 20.0227L30.0362 26.2737C29.9268 26.3825 29.7782 26.443 29.6246 26.442L24.3142 26.4258C24.1526 26.4258 23.999 26.3583 23.8886 26.2405L18.0602 19.9945C17.6998 19.6086 17.5 19.0988 17.5 18.5698V17.0837C17.5 15.933 18.4286 15 19.575 15ZM24.5984 28.1329L29.3316 28.147C29.6267 28.148 29.8656 28.3888 29.8656 28.6841V31.2786C29.8656 31.5748 29.6929 31.8428 29.4239 31.9667L25.1274 33.9325C25.027 33.9778 24.9206 34 24.8142 34C24.6727 34 24.5311 33.9597 24.4076 33.8801C24.1918 33.7411 24.0613 33.5013 24.0613 33.2443V28.67C24.0613 28.3727 24.3022 28.1319 24.5984 28.1329Z" fill="#BA90FF" fill-opacity="0.35"/>
<path d="M36.3786 20.0227L35.6774 19.3097L35.6766 19.3105L36.3786 20.0227ZM30.0362 26.2737L29.3342 25.5615L29.331 25.5646L30.0362 26.2737ZM29.6246 26.442L29.6312 25.442L29.6276 25.442L29.6246 26.442ZM24.3142 26.4258L24.3172 25.4258H24.3142V26.4258ZM23.8886 26.2405L23.1574 26.9227L23.1587 26.9241L23.8886 26.2405ZM18.0602 19.9945L18.7913 19.3123L18.791 19.312L18.0602 19.9945ZM29.3316 28.147L29.335 27.147L29.3345 27.147L29.3316 28.147ZM24.5984 28.1329L24.595 29.1329L24.5954 29.1329L24.5984 28.1329ZM29.4239 31.9667L29.84 32.8761L29.8423 32.875L29.4239 31.9667ZM25.1274 33.9325L25.539 34.8439L25.5434 34.8418L25.1274 33.9325ZM24.4076 33.8801L24.9495 33.0396L24.9492 33.0394L24.4076 33.8801ZM34.925 14H19.575V16H34.925V14ZM37.9999 17.0826C37.9999 15.3832 36.6271 14 34.925 14V16C35.5156 16 35.9999 16.4808 35.9999 17.0826H37.9999ZM37.9999 18.5376V17.0826H35.9999V18.5376H37.9999ZM37.0797 20.7357C37.6692 20.156 37.9999 19.3628 37.9999 18.5376H35.9999C35.9999 18.8288 35.8829 19.1076 35.6774 19.3097L37.0797 20.7357ZM30.7381 26.9859L37.0805 20.735L35.6766 19.3105L29.3342 25.5615L30.7381 26.9859ZM29.618 27.4419C30.0376 27.4447 30.4425 27.2799 30.7413 26.9828L29.331 25.5646C29.411 25.4851 29.5188 25.4413 29.6312 25.442L29.618 27.4419ZM24.3112 27.4258L29.6216 27.442L29.6276 25.442L24.3172 25.4258L24.3112 27.4258ZM23.1587 26.9241C23.4556 27.241 23.8722 27.4258 24.3142 27.4258V25.4258C24.4329 25.4258 24.5424 25.4757 24.6184 25.5568L23.1587 26.9241ZM17.329 20.6768L23.1574 26.9227L24.6197 25.5582L18.7913 19.3123L17.329 20.6768ZM16.5 18.5698C16.5 19.3503 16.7947 20.1046 17.3293 20.6771L18.791 19.312C18.6049 19.1127 18.5 18.8473 18.5 18.5698H16.5ZM16.5 17.0837V18.5698H18.5V17.0837H16.5ZM19.575 14C17.8722 14 16.5 15.3848 16.5 17.0837H18.5C18.5 16.4812 18.985 16 19.575 16V14ZM29.3345 27.147L24.6013 27.1329L24.5954 29.1329L29.3286 29.147L29.3345 27.147ZM30.8656 28.6841C30.8656 27.8406 30.1838 27.1499 29.335 27.147L29.3281 29.147C29.0696 29.1461 28.8656 28.9371 28.8656 28.6841H30.8656ZM30.8656 31.2786V28.6841H28.8656V31.2786H30.8656ZM29.8423 32.875C30.4636 32.5888 30.8656 31.9675 30.8656 31.2786H28.8656C28.8656 31.182 28.9223 31.0968 29.0055 31.0585L29.8423 32.875ZM25.5434 34.8418L29.84 32.8761L29.0079 31.0574L24.7114 33.0231L25.5434 34.8418ZM24.8142 35C25.0604 35 25.3073 34.9485 25.539 34.8438L24.7158 33.0211C24.7467 33.0072 24.7808 33 24.8142 33V35ZM23.8658 34.7206C24.1531 34.9058 24.4832 35 24.8142 35V33C24.8621 33 24.9092 33.0136 24.9495 33.0396L23.8658 34.7206ZM23.0613 33.2443C23.0613 33.8403 23.3638 34.3972 23.8661 34.7207L24.9492 33.0394C25.0198 33.085 25.0613 33.1622 25.0613 33.2443H23.0613ZM23.0613 28.67V33.2443H25.0613V28.67H23.0613ZM24.6018 27.1329C23.749 27.13 23.0613 27.8221 23.0613 28.67H25.0613C25.0613 28.9233 24.8555 29.1338 24.595 29.1329L24.6018 27.1329Z" fill="url(#paint1_linear_7_963)" mask="url(#path-4-outside-1_7_963)"/>
</g>
<defs>
<filter id="filter0_f_7_963" x="1" y="2.70459" width="39.4142" height="39.2754" filterUnits="userSpaceOnUse" color-interpolation-filters="sRGB">
<feFlood flood-opacity="0" result="BackgroundImageFix"/>
<feBlend mode="normal" in="SourceGraphic" in2="BackgroundImageFix" result="shape"/>
<feGaussianBlur stdDeviation="8.5" result="effect1_foregroundBlur_7_963"/>
</filter>
<filter id="filter1_b_7_963" x="-7.5" y="-10" width="69.5" height="69" filterUnits="userSpaceOnUse" color-interpolation-filters="sRGB">
<feFlood flood-opacity="0" result="BackgroundImageFix"/>
<feGaussianBlur in="BackgroundImage" stdDeviation="12"/>
<feComposite in2="SourceAlpha" operator="in" result="effect1_backgroundBlur_7_963"/>
<feBlend mode="normal" in="SourceGraphic" in2="effect1_backgroundBlur_7_963" result="shape"/>
</filter>
<linearGradient id="paint0_linear_7_963" x1="19.6177" y1="19.5515" x2="19.6177" y2="32.4477" gradientUnits="userSpaceOnUse">
<stop stop-color="#BC94FF"/>
<stop offset="1" stop-color="#9F66FF"/>
</linearGradient>
<linearGradient id="paint1_linear_7_963" x1="20.6041" y1="17.2135" x2="32.654" y2="32.5304" gradientUnits="userSpaceOnUse">
<stop stop-color="white" stop-opacity="0.25"/>
<stop offset="1" stop-color="white" stop-opacity="0"/>
</linearGradient>
</defs>
</svg>
