<svg width="50" height="50" viewBox="0 0 50 50" fill="none" xmlns="http://www.w3.org/2000/svg">
<circle opacity="0.2" cx="25" cy="25" r="25" fill="#F23936"/>
<path d="M33.2004 16.8502L26.5785 15.0393C24.1766 14.3824 22.4012 15.4354 21.7555 17.8949L19.5686 26.2249C18.9123 28.7247 19.9424 30.5103 22.3443 31.1671L28.9662 32.978C31.4069 33.6455 33.1343 32.614 33.7906 30.1142L35.9775 21.7842C36.6233 19.3247 35.6411 17.5176 33.2004 16.8502Z" fill="url(#paint0_linear_3_817)"/>
<g opacity="0.5" filter="url(#filter0_f_3_817)">
<path d="M31.4838 19.1136L26.9557 17.8753C25.3132 17.4261 24.0992 18.1461 23.6577 19.8279L22.1623 25.524C21.7135 27.2334 22.4179 28.4544 24.0603 28.9035L28.5884 30.1418C30.2573 30.5982 31.4385 29.8929 31.8873 28.1835L33.3828 22.4874C33.8243 20.8056 33.1527 19.57 31.4838 19.1136Z" fill="#F86652"/>
</g>
<g filter="url(#filter1_b_3_817)">
<mask id="path-4-outside-1_3_817" maskUnits="userSpaceOnUse" x="12" y="15.7897" width="21" height="22" fill="black">
<rect fill="white" x="12" y="15.7897" width="21" height="22"/>
<path fill-rule="evenodd" clip-rule="evenodd" d="M13 26.3458V30.2648C12.9999 30.6902 13.0334 31.1149 13.1005 31.5347C13.2059 32.2767 13.4563 32.9897 13.8369 33.6314C14.0102 33.9412 14.2211 34.2275 14.4645 34.4838C15.5831 35.5279 17.0662 36.0714 18.5816 35.9924H26.2301C27.743 36.0719 29.2238 35.5283 30.3389 34.4838C30.5852 34.228 30.7989 33.9416 30.9748 33.6314C31.3577 32.9892 31.6135 32.277 31.728 31.5347C31.7881 31.1142 31.8188 30.6898 31.82 30.2648V25.2191C31.8486 24.253 31.7098 23.2893 31.41 22.3723C31.2576 21.9261 31.0249 21.5128 30.7238 21.1535C30.6291 21.04 30.5256 20.9345 30.4142 20.8381C29.4468 20.0616 28.228 19.6843 27 19.7813H24.1786C23.5107 19.768 22.8806 19.4573 22.456 18.9293L21.5439 17.6423C21.1139 17.0939 20.4588 16.7791 19.7698 16.79H17.8117C14.2971 16.79 13 18.8952 13 22.475V26.3445C13 26.3449 13 26.3453 13 26.3458Z"/>
</mask>
<path fill-rule="evenodd" clip-rule="evenodd" d="M13 26.3458V30.2648C12.9999 30.6902 13.0334 31.1149 13.1005 31.5347C13.2059 32.2767 13.4563 32.9897 13.8369 33.6314C14.0102 33.9412 14.2211 34.2275 14.4645 34.4838C15.5831 35.5279 17.0662 36.0714 18.5816 35.9924H26.2301C27.743 36.0719 29.2238 35.5283 30.3389 34.4838C30.5852 34.228 30.7989 33.9416 30.9748 33.6314C31.3577 32.9892 31.6135 32.277 31.728 31.5347C31.7881 31.1142 31.8188 30.6898 31.82 30.2648V25.2191C31.8486 24.253 31.7098 23.2893 31.41 22.3723C31.2576 21.9261 31.0249 21.5128 30.7238 21.1535C30.6291 21.04 30.5256 20.9345 30.4142 20.8381C29.4468 20.0616 28.228 19.6843 27 19.7813H24.1786C23.5107 19.768 22.8806 19.4573 22.456 18.9293L21.5439 17.6423C21.1139 17.0939 20.4588 16.7791 19.7698 16.79H17.8117C14.2971 16.79 13 18.8952 13 22.475V26.3445C13 26.3449 13 26.3453 13 26.3458Z" fill="#FFAC95" fill-opacity="0.4"/>
<path d="M13 26.3458H14C14 26.3204 13.9991 26.295 13.9971 26.2697L13 26.3458ZM13 30.2648L14 30.2652V30.2648H13ZM13.1005 31.5347L14.0905 31.3941C14.0897 31.3884 14.0889 31.3828 14.088 31.3771L13.1005 31.5347ZM13.8369 33.6314L14.7095 33.143C14.7054 33.1357 14.7012 33.1285 14.697 33.1213L13.8369 33.6314ZM14.4645 34.4838L13.7394 35.1724C13.7532 35.187 13.7675 35.2011 13.7821 35.2148L14.4645 34.4838ZM18.5816 35.9924V34.9924C18.5642 34.9924 18.5469 34.9928 18.5295 34.9937L18.5816 35.9924ZM26.2301 35.9924L26.2826 34.9937C26.2651 34.9928 26.2476 34.9924 26.2301 34.9924V35.9924ZM30.3389 34.4838L31.0225 35.2136C31.035 35.2019 31.0472 35.1898 31.0591 35.1775L30.3389 34.4838ZM30.9748 33.6314L30.1159 33.1194C30.1122 33.1255 30.1086 33.1318 30.105 33.138L30.9748 33.6314ZM31.728 31.5347L32.7164 31.6871L32.7179 31.6762L31.728 31.5347ZM31.82 30.2648L32.82 30.2676V30.2648H31.82ZM31.82 25.2191L30.8205 25.1895C30.8202 25.1993 30.82 25.2092 30.82 25.2191H31.82ZM31.41 22.3723L32.3605 22.0615L32.3563 22.0491L31.41 22.3723ZM30.7238 21.1535L29.9559 21.7941L29.9573 21.7958L30.7238 21.1535ZM30.4142 20.8381L31.0686 20.082C31.0592 20.0739 31.0498 20.066 31.0401 20.0583L30.4142 20.8381ZM27 19.7813V20.7813C27.0262 20.7813 27.0525 20.7802 27.0787 20.7782L27 19.7813ZM24.1786 19.7813L24.1587 20.7811C24.1653 20.7812 24.172 20.7813 24.1786 20.7813V19.7813ZM22.456 18.9293L21.6401 19.5076C21.6519 19.5241 21.6641 19.5402 21.6768 19.556L22.456 18.9293ZM21.5439 17.6423L22.3598 17.0641C22.3505 17.051 22.3408 17.0381 22.3309 17.0254L21.5439 17.6423ZM19.7698 16.79V17.79C19.7751 17.79 19.7804 17.79 19.7856 17.7899L19.7698 16.79ZM13 26.3445L14 26.3548V26.3445H13ZM12 26.3458V30.2648H14V26.3458H12ZM12 30.2644C11.9998 30.7426 12.0376 31.2202 12.113 31.6924L14.088 31.3771C14.0293 31.0095 13.9999 30.6377 14 30.2652L12 30.2644ZM12.1104 31.6754C12.2343 32.5473 12.5286 33.3859 12.9767 34.1415L14.697 33.1213C14.3839 32.5935 14.1775 32.0062 14.0905 31.3941L12.1104 31.6754ZM12.9643 34.1199C13.1781 34.5019 13.4384 34.8556 13.7394 35.1724L15.1895 33.7951C15.0037 33.5995 14.8424 33.3804 14.7095 33.143L12.9643 34.1199ZM13.7821 35.2148C15.0972 36.4423 16.8448 37.0843 18.6337 36.991L18.5295 34.9937C17.2877 35.0585 16.069 34.6135 15.1468 33.7527L13.7821 35.2148ZM18.5816 36.9924H26.2301V34.9924H18.5816V36.9924ZM26.1776 36.991C27.9648 37.085 29.7107 36.4423 31.0225 35.2136L29.6552 33.7539C28.7368 34.6142 27.5212 35.0589 26.2826 34.9937L26.1776 36.991ZM31.0591 35.1775C31.3637 34.8612 31.6276 34.5075 31.8446 34.1249L30.105 33.138C29.9702 33.3758 29.8066 33.5948 29.6186 33.79L31.0591 35.1775ZM31.8338 34.1435C32.2828 33.3903 32.5824 32.5559 32.7163 31.6871L30.7396 31.3824C30.6447 31.9981 30.4326 32.5881 30.1159 33.1194L31.8338 34.1435ZM32.7179 31.6762C32.7846 31.2097 32.8187 30.739 32.82 30.2676L30.82 30.2619C30.8189 30.6406 30.7915 31.0187 30.738 31.3933L32.7179 31.6762ZM32.82 30.2648V25.2191H30.82V30.2648H32.82ZM32.8196 25.2486C32.8516 24.1673 32.6963 23.0885 32.3605 22.0615L30.4595 22.6831C30.7234 23.4901 30.8456 24.3386 30.8205 25.1895L32.8196 25.2486ZM32.3563 22.0491C32.1644 21.4871 31.8709 20.9655 31.4903 20.5112L29.9573 21.7958C30.1789 22.0602 30.3508 22.3652 30.4637 22.6955L32.3563 22.0491ZM31.4917 20.5129C31.3625 20.358 31.221 20.2139 31.0686 20.082L29.7598 21.5943C29.8302 21.6552 29.8958 21.722 29.9559 21.7941L31.4917 20.5129ZM31.0401 20.0583C29.8757 19.1236 28.4052 18.6672 26.9213 18.7844L27.0787 20.7782C28.0507 20.7014 29.0179 20.9997 29.7882 21.618L31.0401 20.0583ZM27 18.7813H24.1786V20.7813H27V18.7813ZM24.1985 18.7815C23.8298 18.7741 23.4765 18.6026 23.2353 18.3026L21.6768 19.556C22.2847 20.312 23.1915 20.7618 24.1587 20.7811L24.1985 18.7815ZM23.2719 18.3511L22.3598 17.0641L20.728 18.2206L21.6401 19.5076L23.2719 18.3511ZM22.3309 17.0254C21.7106 16.234 20.76 15.7742 19.754 15.7901L19.7856 17.7899C20.1577 17.784 20.5173 17.9537 20.7569 18.2593L22.3309 17.0254ZM19.7698 15.79H17.8117V17.79H19.7698V15.79ZM17.8117 15.79C15.846 15.79 14.3077 16.3891 13.3009 17.673C12.334 18.9061 12 20.5972 12 22.475H14C14 20.773 14.3145 19.6216 14.8748 18.9072C15.3952 18.2435 16.2627 17.79 17.8117 17.79V15.79ZM12 22.475V26.3445H14V22.475H12ZM12.0001 26.3342C11.9998 26.3637 12.0007 26.3929 12.0029 26.4218L13.9971 26.2697C13.9993 26.2978 14.0002 26.3261 13.9999 26.3548L12.0001 26.3342Z" fill="url(#paint1_linear_3_817)" mask="url(#path-4-outside-1_3_817)"/>
</g>
<g filter="url(#filter2_bd_3_817)">
<path d="M27.1692 31.7704H17.6965C17.2666 31.7704 16.9182 31.4155 16.9182 30.9778C16.9182 30.54 17.2666 30.1851 17.6965 30.1851H27.2445C27.4763 30.1878 27.6933 30.3015 27.8303 30.492C27.9494 30.6337 28.0094 30.8172 27.9976 31.0033C27.9911 31.2151 27.9016 31.4155 27.7491 31.5596C27.5966 31.7037 27.3938 31.7797 27.1859 31.7704H27.1692Z" fill="url(#paint2_linear_3_817)"/>
<path d="M27.6679 30.6087L27.6723 30.6148L27.6771 30.6206C27.7629 30.7226 27.8066 30.8554 27.798 30.9907L27.7979 30.9907L27.7977 30.9972C27.7928 31.1567 27.7254 31.3068 27.6118 31.4142C27.4982 31.5215 27.348 31.5774 27.1948 31.5706L27.1948 31.5704H27.1859H27.1692H17.6965C17.3805 31.5704 17.1182 31.3086 17.1182 30.9778C17.1182 30.647 17.3805 30.3851 17.6965 30.3851H27.2433C27.4102 30.3874 27.5677 30.4694 27.6679 30.6087Z" stroke="url(#paint3_linear_3_817)" stroke-width="0.4"/>
</g>
<defs>
<filter id="filter0_f_3_817" x="7.02966" y="2.74438" width="41.4854" height="42.5331" filterUnits="userSpaceOnUse" color-interpolation-filters="sRGB">
<feFlood flood-opacity="0" result="BackgroundImageFix"/>
<feBlend mode="normal" in="SourceGraphic" in2="BackgroundImageFix" result="shape"/>
<feGaussianBlur stdDeviation="7.5" result="effect1_foregroundBlur_3_817"/>
</filter>
<filter id="filter1_b_3_817" x="-3" y="0.789734" width="50.8237" height="51.2103" filterUnits="userSpaceOnUse" color-interpolation-filters="sRGB">
<feFlood flood-opacity="0" result="BackgroundImageFix"/>
<feGaussianBlur in="BackgroundImage" stdDeviation="7.5"/>
<feComposite in2="SourceAlpha" operator="in" result="effect1_backgroundBlur_3_817"/>
<feBlend mode="normal" in="SourceGraphic" in2="effect1_backgroundBlur_3_817" result="shape"/>
</filter>
<filter id="filter2_bd_3_817" x="1.91821" y="15.1851" width="41.0809" height="31.5861" filterUnits="userSpaceOnUse" color-interpolation-filters="sRGB">
<feFlood flood-opacity="0" result="BackgroundImageFix"/>
<feGaussianBlur in="BackgroundImage" stdDeviation="7.5"/>
<feComposite in2="SourceAlpha" operator="in" result="effect1_backgroundBlur_3_817"/>
<feColorMatrix in="SourceAlpha" type="matrix" values="0 0 0 0 0 0 0 0 0 0 0 0 0 0 0 0 0 0 127 0" result="hardAlpha"/>
<feOffset dx="5" dy="5"/>
<feGaussianBlur stdDeviation="5"/>
<feColorMatrix type="matrix" values="0 0 0 0 0.976471 0 0 0 0 0.435294 0 0 0 0 0.352941 0 0 0 0.5 0"/>
<feBlend mode="normal" in2="effect1_backgroundBlur_3_817" result="effect2_dropShadow_3_817"/>
<feBlend mode="normal" in="SourceGraphic" in2="effect2_dropShadow_3_817" result="shape"/>
</filter>
<linearGradient id="paint0_linear_3_817" x1="23.1503" y1="18.8249" x2="29.7153" y2="41.8353" gradientUnits="userSpaceOnUse">
<stop stop-color="#FFA78F"/>
<stop offset="1" stop-color="#F23E2C"/>
</linearGradient>
<linearGradient id="paint1_linear_3_817" x1="15.9964" y1="19.0278" x2="28.3007" y2="33.9602" gradientUnits="userSpaceOnUse">
<stop stop-color="white" stop-opacity="0.25"/>
<stop offset="1" stop-color="white" stop-opacity="0"/>
</linearGradient>
<linearGradient id="paint2_linear_3_817" x1="27.2135" y1="30.4715" x2="15.4668" y2="33.1473" gradientUnits="userSpaceOnUse">
<stop stop-color="white"/>
<stop offset="1" stop-color="white" stop-opacity="0.2"/>
</linearGradient>
<linearGradient id="paint3_linear_3_817" x1="18.6821" y1="30.3699" x2="18.9182" y2="32.4126" gradientUnits="userSpaceOnUse">
<stop stop-color="white" stop-opacity="0.25"/>
<stop offset="1" stop-color="white" stop-opacity="0"/>
</linearGradient>
</defs>
</svg>
