<svg width="50" height="50" viewBox="0 0 50 50" fill="none" xmlns="http://www.w3.org/2000/svg">
<g clip-path="url(#clip0_625_461)">
<path opacity="0.2" d="M25 50C38.8071 50 50 38.8071 50 25C50 11.1929 38.8071 0 25 0C11.1929 0 0 11.1929 0 25C0 38.8071 11.1929 50 25 50Z" fill="#008EFF"/>
<path d="M20.0536 20.8517C17.915 18.97 17.512 15.7634 19.1191 13.4169C20.7263 11.0703 23.8264 10.3392 26.3069 11.7217L29.7997 13.6685C32.9063 15.4 33.86 19.4725 31.8472 22.4113C29.8343 25.3502 25.7435 25.8579 23.0651 23.5013L20.0536 20.8517Z" fill="url(#paint0_linear_625_461)"/>
<g opacity="0.5" filter="url(#filter0_f_625_461)">
<path d="M21.8496 19.6798C20.5855 18.5676 20.3472 16.6722 21.2972 15.2852C22.2472 13.8982 24.0796 13.4661 25.5458 14.2832L27.6103 15.434C29.4466 16.4574 30.0104 18.8646 28.8206 20.6017C27.6308 22.3388 25.2128 22.6389 23.6296 21.246L21.8496 19.6798Z" fill="#0062FF"/>
</g>
<mask id="mask0_625_461" style="mask-type:alpha" maskUnits="userSpaceOnUse" x="12" y="14" width="26" height="25">
<path d="M38 14.9751H12V38.9751H38V14.9751Z" fill="white"/>
<path d="M36.1 28.7448C35.1148 28.7448 34.3132 27.938 34.3132 26.9464C34.3132 25.9537 35.1148 25.1469 36.1 25.1469C36.3388 25.1469 36.568 25.0515 36.736 24.8824C36.9052 24.7121 37 24.4814 37 24.2411L36.9988 20.9777C36.9988 18.2191 34.768 15.9751 32.0272 15.9751H17.9728C15.232 15.9751 13.0012 18.2191 13.0012 20.9777L13 24.3461C13 24.5865 13.0948 24.8172 13.264 24.9875C13.432 25.1565 13.6612 25.252 13.9 25.252C14.9188 25.252 15.6868 25.9802 15.6868 26.9464C15.6868 27.938 14.8852 28.7448 13.9 28.7448C13.4032 28.7448 13 29.1506 13 29.6506V32.9116C13 35.6702 15.2296 37.9154 17.9716 37.9154H32.0284C34.7704 37.9154 37 35.6702 37 32.9116V29.6506C37 29.1506 36.5968 28.7448 36.1 28.7448Z" fill="black"/>
</mask>
<g mask="url(#mask0_625_461)">
<path d="M36.1 28.7448C35.1148 28.7448 34.3132 27.938 34.3132 26.9464C34.3132 25.9537 35.1148 25.1469 36.1 25.1469C36.3388 25.1469 36.568 25.0515 36.736 24.8824C36.9052 24.7121 37 24.4814 37 24.2411L36.9988 20.9777C36.9988 18.2191 34.768 15.9751 32.0272 15.9751H17.9728C15.232 15.9751 13.0012 18.2191 13.0012 20.9777L13 24.3461C13 24.5865 13.0948 24.8172 13.264 24.9875C13.432 25.1565 13.6612 25.252 13.9 25.252C14.9188 25.252 15.6868 25.9802 15.6868 26.9464C15.6868 27.938 14.8852 28.7448 13.9 28.7448C13.4032 28.7448 13 29.1506 13 29.6506V32.9116C13 35.6702 15.2296 37.9154 17.9716 37.9154H32.0284C34.7704 37.9154 37 35.6702 37 32.9116V29.6506C37 29.1506 36.5968 28.7448 36.1 28.7448Z" fill="#3EA0FE" fill-opacity="0.35"/>
<path d="M36.1 29.7448C36.6523 29.7448 37.1 29.2971 37.1 28.7448C37.1 28.1925 36.6523 27.7448 36.1 27.7448V29.7448ZM36.736 24.8824L36.0266 24.1776L36.736 24.8824ZM37 24.2411H38V24.2407L37 24.2411ZM36.9988 20.9777H35.9988V20.978L36.9988 20.9777ZM13.0012 20.9777L14.0012 20.978V20.9777H13.0012ZM13 24.3461L12 24.3458V24.3461H13ZM13.264 24.9875L13.9734 24.2826L13.264 24.9875ZM36.1 27.7448C35.5477 27.7448 35.1 28.1925 35.1 28.7448C35.1 29.2971 35.5477 29.7448 36.1 29.7448V27.7448ZM36.1 27.7448C35.6732 27.7448 35.3132 27.3918 35.3132 26.9464H33.3132C33.3132 28.4842 34.5564 29.7448 36.1 29.7448V27.7448ZM35.3132 26.9464C35.3132 26.4994 35.6736 26.1469 36.1 26.1469V24.1469C34.556 24.1469 33.3132 25.4079 33.3132 26.9464H35.3132ZM36.1 26.1469C36.605 26.1469 37.0896 25.9453 37.4454 25.5872L36.0266 24.1776C36.0464 24.1576 36.0726 24.1469 36.1 24.1469V26.1469ZM37.4454 25.5872C37.8015 25.2288 38 24.7444 38 24.2411H36C36 24.2184 36.0089 24.1954 36.0266 24.1776L37.4454 25.5872ZM38 24.2407L37.9988 20.9773L35.9988 20.978L36 24.2414L38 24.2407ZM37.9988 20.9777C37.9988 17.6726 35.326 14.9751 32.0272 14.9751V16.9751C34.21 16.9751 35.9988 18.7656 35.9988 20.9777H37.9988ZM32.0272 14.9751H17.9728V16.9751H32.0272V14.9751ZM17.9728 14.9751C14.674 14.9751 12.0012 17.6726 12.0012 20.9777H14.0012C14.0012 18.7656 15.79 16.9751 17.9728 16.9751V14.9751ZM12.0012 20.9773L12 24.3458L14 24.3465L14.0012 20.978L12.0012 20.9773ZM12 24.3461C12 24.8495 12.1985 25.3339 12.5546 25.6923L13.9734 24.2826C13.9911 24.3004 14 24.3234 14 24.3461H12ZM12.5546 25.6923C12.9104 26.0504 13.395 26.252 13.9 26.252V24.252C13.9274 24.252 13.9536 24.2627 13.9734 24.2826L12.5546 25.6923ZM13.9 26.252C14.4172 26.252 14.6868 26.5819 14.6868 26.9464H16.6868C16.6868 25.3786 15.4204 24.252 13.9 24.252V26.252ZM14.6868 26.9464C14.6868 27.3918 14.3268 27.7448 13.9 27.7448V29.7448C15.4436 29.7448 16.6868 28.4842 16.6868 26.9464H14.6868ZM13.9 27.7448C12.8448 27.7448 12 28.6044 12 29.6506H14C14 29.6968 13.9616 29.7448 13.9 29.7448V27.7448ZM12 29.6506V32.9116H14V29.6506H12ZM12 32.9116C12 36.2162 14.6711 38.9154 17.9716 38.9154V36.9154C15.7881 36.9154 14 35.1241 14 32.9116H12ZM17.9716 38.9154H32.0284V36.9154H17.9716V38.9154ZM32.0284 38.9154C35.3289 38.9154 38 36.2162 38 32.9116H36C36 35.1241 34.2119 36.9154 32.0284 36.9154V38.9154ZM38 32.9116V29.6506H36V32.9116H38ZM38 29.6506C38 28.6044 37.1552 27.7448 36.1 27.7448V29.7448C36.0384 29.7448 36 29.6968 36 29.6506H38Z" fill="url(#paint1_linear_625_461)"/>
</g>
<g filter="url(#filter1_d_625_461)">
<path d="M29.1166 26.4438L27.7018 27.8431L28.0366 29.8214C28.0942 30.1639 27.9586 30.5015 27.6814 30.7038C27.4066 30.9086 27.0478 30.9342 26.7454 30.7709L24.9994 29.8384L23.2498 30.7721C23.1202 30.8416 22.9786 30.8781 22.8382 30.8781C22.6546 30.8781 22.4734 30.8196 22.3174 30.7051C22.0414 30.5015 21.9058 30.1639 21.9634 29.8214L22.297 27.8431L20.8822 26.4438C20.6374 26.2024 20.5522 25.8477 20.6578 25.5174C20.7646 25.1883 21.0406 24.9543 21.3778 24.9055L23.329 24.6166L24.2038 22.8163C24.3562 22.5067 24.661 22.3141 24.9994 22.3141H25.0018C25.3414 22.3153 25.6462 22.5079 25.7962 22.8175L26.671 24.6166L28.6258 24.9067C28.9594 24.9543 29.2354 25.1883 29.341 25.5174C29.4478 25.8477 29.3626 26.2024 29.1166 26.4438Z" fill="url(#paint2_linear_625_461)"/>
<path d="M29.0463 26.3727L29.0466 26.3724C29.2651 26.158 29.3412 25.843 29.2458 25.5482V25.5479C29.1516 25.2546 28.9066 25.0478 28.6117 25.0057L28.6111 25.0056L26.6563 24.7155L26.6041 24.7078L26.5811 24.6604L25.7063 22.8612L25.7062 22.8611C25.5727 22.5855 25.3025 22.4153 25.0016 22.4141H24.9994C24.7002 22.4141 24.4297 22.584 24.2936 22.8602C24.2936 22.8603 24.2936 22.8604 24.2935 22.8605L23.4189 24.6603L23.3959 24.7078L23.3436 24.7155L21.3924 25.0044L21.3921 25.0045C21.0933 25.0477 20.8483 25.2547 20.753 25.5481C20.6588 25.8431 20.735 26.1582 20.9524 26.3726L20.9525 26.3727L22.3673 27.772L22.4042 27.8085L22.3956 27.8597L22.062 29.8379C22.0106 30.1437 22.1315 30.4437 22.3767 30.6246C22.5158 30.7266 22.6762 30.7781 22.8382 30.7781C22.9613 30.7781 23.0867 30.7461 23.2026 30.684L23.2027 30.6839L24.9523 29.7502L24.9994 29.7251L25.0465 29.7502L26.7925 30.6827L26.7929 30.6829C27.0613 30.8278 27.3782 30.8051 27.6216 30.6237L27.6224 30.6231C27.8685 30.4435 27.9894 30.1439 27.938 29.838L29.0463 26.3727ZM29.0463 26.3727L27.6315 27.772L27.5945 27.8085L27.6032 27.8598L27.938 29.8379L29.0463 26.3727Z" stroke="url(#paint3_linear_625_461)" stroke-opacity="0.5" stroke-width="0.2"/>
</g>
</g>
<defs>
<filter id="filter0_f_625_461" x="0.716797" y="-6.1286" width="48.7295" height="48.2528" filterUnits="userSpaceOnUse" color-interpolation-filters="sRGB">
<feFlood flood-opacity="0" result="BackgroundImageFix"/>
<feBlend mode="normal" in="SourceGraphic" in2="BackgroundImageFix" result="shape"/>
<feGaussianBlur stdDeviation="10" result="effect1_foregroundBlur_625_461"/>
</filter>
<filter id="filter1_d_625_461" x="15.6133" y="17.3141" width="28.7729" height="28.564" filterUnits="userSpaceOnUse" color-interpolation-filters="sRGB">
<feFlood flood-opacity="0" result="BackgroundImageFix"/>
<feColorMatrix in="SourceAlpha" type="matrix" values="0 0 0 0 0 0 0 0 0 0 0 0 0 0 0 0 0 0 127 0" result="hardAlpha"/>
<feOffset dx="5" dy="5"/>
<feGaussianBlur stdDeviation="5"/>
<feColorMatrix type="matrix" values="0 0 0 0 0.15375 0 0 0 0 0.522433 0 0 0 0 0.9 0 0 0 0.5 0"/>
<feBlend mode="normal" in2="BackgroundImageFix" result="effect1_dropShadow_625_461"/>
<feBlend mode="normal" in="SourceGraphic" in2="effect1_dropShadow_625_461" result="shape"/>
</filter>
<linearGradient id="paint0_linear_625_461" x1="22.3481" y1="8.70237" x2="20.9569" y2="26.5425" gradientUnits="userSpaceOnUse">
<stop stop-color="#39AFFD"/>
<stop offset="1" stop-color="#477FFF"/>
</linearGradient>
<linearGradient id="paint1_linear_625_461" x1="16.8204" y1="18.5312" x2="34.6547" y2="38.404" gradientUnits="userSpaceOnUse">
<stop stop-color="white" stop-opacity="0.25"/>
<stop offset="1" stop-color="white" stop-opacity="0"/>
</linearGradient>
<linearGradient id="paint2_linear_625_461" x1="28.7643" y1="23.8606" x2="18.9925" y2="24.187" gradientUnits="userSpaceOnUse">
<stop stop-color="white"/>
<stop offset="1" stop-color="white" stop-opacity="0.2"/>
</linearGradient>
<linearGradient id="paint3_linear_625_461" x1="21.5583" y1="25.1869" x2="29.0078" y2="25.2291" gradientUnits="userSpaceOnUse">
<stop stop-color="white"/>
<stop offset="1" stop-color="white" stop-opacity="0"/>
</linearGradient>
<clipPath id="clip0_625_461">
<rect width="50" height="50" fill="white"/>
</clipPath>
</defs>
</svg>
