<svg width="120" height="39" viewBox="0 0 120 39" fill="none" xmlns="http://www.w3.org/2000/svg">
<path fill-rule="evenodd" clip-rule="evenodd" d="M7.98846 3.89777C6.66785 4.82118 5.47366 5.91295 4.437 7.14195C8.67328 6.74866 14.0553 7.39086 20.3038 10.5152C26.9764 13.8514 32.3494 13.9642 36.0888 13.2429C35.7495 12.2156 35.3223 11.2283 34.8163 10.2897C30.5357 10.7411 25.0481 10.1435 18.6526 6.94587C14.5914 4.91529 11.0116 4.07882 7.98846 3.89777ZM32.3158 6.73049C28.9354 2.95358 24.0229 0.57666 18.5551 0.57666C16.9494 0.57666 15.3915 0.781682 13.9062 1.16695C15.9178 1.71582 18.0547 2.5188 20.3038 3.64337C24.9862 5.98453 29.0287 6.73835 32.3158 6.73049ZM36.8883 16.8488C32.3707 17.7408 26.1325 17.5576 18.6526 13.8177C11.6597 10.3212 6.09403 10.3653 2.3403 11.1995C2.14655 11.2425 1.95736 11.2877 1.77273 11.3348C1.28128 12.4036 0.888982 13.5275 0.607507 14.6947C0.908138 14.6144 1.21879 14.538 1.53931 14.4668C6.09323 13.4548 12.5275 13.4987 20.3038 17.3869C27.2968 20.8834 32.8625 20.8393 36.6162 20.0051C36.7448 19.9766 36.8716 19.9471 36.9962 19.9166C37.0098 19.6256 37.0167 19.3327 37.0167 19.0382C37.0167 18.2975 36.9731 17.5668 36.8883 16.8488ZM36.3934 23.8127C31.9197 24.5948 25.8631 24.2946 18.6526 20.6894C11.6597 17.193 6.09403 17.237 2.3403 18.0712C1.50709 18.2563 0.757541 18.4818 0.0963325 18.7199C0.0945298 18.8257 0.0936279 18.9319 0.0936279 19.0382C0.0936279 29.2343 8.35913 37.4998 18.5551 37.4998C27.1001 37.4998 34.2893 31.6944 36.3934 23.8127Z" fill="#6640FF"/>
<path d="M47.0511 28.8071V10.0823H58.143V12.8H49.7688V18.0794H56.5826V20.8101H49.7688V28.8071H47.0511ZM60.4862 28.8071V14.7635H62.9049V18.1704L62.5668 17.7283C62.7402 17.2775 62.9655 16.8657 63.2429 16.4929C63.5204 16.1115 63.8411 15.7994 64.2052 15.5567C64.5606 15.2966 64.9552 15.0973 65.3885 14.9586C65.8307 14.8112 66.2814 14.7245 66.7408 14.6985C67.2003 14.6638 67.6424 14.6855 68.0672 14.7635V17.3122C67.6077 17.1908 67.0963 17.1561 66.5328 17.2081C65.978 17.2601 65.4665 17.4379 64.9984 17.7413C64.5563 18.0273 64.2052 18.3741 63.9451 18.7815C63.6937 19.189 63.5117 19.6441 63.399 20.1469C63.2863 20.641 63.2299 21.1655 63.2299 21.7203V28.8071H60.4862ZM72.0864 35.0487L74.8041 27.6498L74.8432 29.8344L68.7186 14.7635H71.5533L76.1305 26.4015H75.2983L79.6674 14.7635H82.4241L74.6741 35.0487H72.0864ZM91.0538 29.1972C89.7102 29.1972 88.5832 28.8721 87.673 28.222C86.7627 27.5631 86.0736 26.6746 85.6054 25.5563C85.1373 24.438 84.9033 23.1767 84.9033 21.7723C84.9033 20.3679 85.133 19.1066 85.5924 17.9883C86.0606 16.87 86.7454 15.9902 87.647 15.3487C88.5572 14.6985 89.6755 14.3734 91.0018 14.3734C92.3195 14.3734 93.4551 14.6985 94.4087 15.3487C95.371 15.9902 96.1122 16.87 96.6323 17.9883C97.1524 19.098 97.4125 20.3593 97.4125 21.7723C97.4125 23.1767 97.1524 24.4423 96.6323 25.5693C96.1208 26.6876 95.3883 27.5718 94.4347 28.222C93.4898 28.8721 92.3629 29.1972 91.0538 29.1972ZM84.4482 28.8071V10.0823H87.1789V18.7035H86.8668V28.8071H84.4482ZM90.6768 26.7396C91.5436 26.7396 92.2589 26.5185 92.8223 26.0764C93.3946 25.6343 93.8192 25.0405 94.0966 24.295C94.3827 23.5408 94.5257 22.6999 94.5257 21.7723C94.5257 20.8534 94.3827 20.0212 94.0966 19.2757C93.8192 18.5301 93.3901 17.9363 92.8093 17.4942C92.2285 17.0521 91.4873 16.831 90.5857 16.831C89.7362 16.831 89.034 17.0391 88.4792 17.4552C87.933 17.8713 87.5257 18.4521 87.257 19.1976C86.9968 19.9432 86.8668 20.8014 86.8668 21.7723C86.8668 22.7432 86.9968 23.6014 87.257 24.347C87.5169 25.0925 87.9287 25.6776 88.4922 26.1024C89.0557 26.5272 89.784 26.7396 90.6768 26.7396ZM100.544 12.4619V9.82227H103.261V12.4619H100.544ZM100.544 28.8071V14.7635H103.261V28.8071H100.544ZM105.606 28.8071L110.859 21.7073L105.723 14.7635H108.948L112.446 19.5877L115.905 14.7635H119.129L113.993 21.7073L119.259 28.8071H116.022L112.446 23.8268L108.844 28.8071H105.606Z" fill="black"/>
</svg>
