<svg width="166" height="40" viewBox="0 0 166 40" fill="none" xmlns="http://www.w3.org/2000/svg">
<g clip-path="url(#clip0_3_612)">
<path d="M21.5316 0.918518L34.0597 7.95309C35.808 8.9347 36.889 10.7758 36.889 12.7714V26.6341C36.889 28.6297 35.808 30.4708 34.0597 31.4524L21.5316 38.487C19.8319 39.4413 17.7537 39.4413 16.054 38.487L3.52591 31.4524C1.77771 30.4708 0.696655 28.6297 0.696655 26.6341V12.7714C0.696655 10.7758 1.77771 8.9347 3.52591 7.95309L16.054 0.918518C17.7537 -0.0358276 19.8319 -0.0358276 21.5316 0.918518ZM2.78468 12.8276V26.6341C2.78468 27.873 3.45701 29.018 4.54774 29.6305L16.8979 36.5651C17.0579 36.6271 17.2283 36.6592 17.4009 36.6592C18.1696 36.6592 18.7928 36.0356 18.7928 35.2664V24.1069C18.7928 22.2882 17.7811 20.6207 16.1685 19.7817L15.2492 19.3034C15.0324 19.211 14.8183 19.1098 14.6075 18.9997L2.78468 12.8276ZM15.7371 17.7648C17.9561 18.9233 19.6355 18.9233 21.8546 17.7648L33.8486 11.0273C33.5533 10.3506 33.041 9.77323 32.3709 9.39692L20.5099 2.74053C19.4449 2.14255 18.1408 2.14255 17.0758 2.74053L5.23731 9.39692C4.56711 9.77323 4.05489 10.3506 3.75953 11.0273L15.7371 17.7648ZM18.7928 5.07776C21.4028 5.07776 23.5335 6.36127 23.659 7.97408L23.6649 10.7362C23.6649 12.419 21.4836 13.7831 18.7928 13.7831C16.102 13.7831 13.9208 12.419 13.9208 10.7362V7.97408C14.0521 6.36127 16.1828 5.07776 18.7928 5.07776ZM18.7933 9.95276C21.0536 9.95276 22.8859 9.03606 22.8859 7.90526C22.8859 6.77445 21.0536 5.85776 18.7933 5.85776C16.5331 5.85776 14.7008 6.77445 14.7008 7.90526C14.7008 9.03606 16.5331 9.95276 18.7933 9.95276Z" fill="#5A45FF"/>
<path fill-rule="evenodd" clip-rule="evenodd" d="M56.0815 20.7495C56.0815 22.3116 56.483 23.5669 57.2859 24.5152C58.0887 25.4637 59.1481 25.9378 60.4639 25.9378C61.7351 25.9378 62.7721 25.4581 63.575 24.4986C64.3779 23.5389 64.7794 22.2782 64.7794 20.7161C64.7794 19.1763 64.3891 17.9489 63.6085 17.034C62.828 16.1191 61.7909 15.6616 60.4973 15.6616C59.2038 15.6616 58.1446 16.1246 57.3193 17.0508C56.4942 17.9769 56.0815 19.2098 56.0815 20.7495ZM68.526 4.71584V28.9504H66.3335C65.753 28.9504 65.2215 28.6245 64.9579 28.107C64.8165 27.8295 64.7459 27.5596 64.7459 27.2974C64.2955 27.8124 63.9375 28.2449 63.09 28.7136C62.2424 29.1822 61.1218 29.3521 60.0291 29.3521C57.7096 29.3521 55.8251 28.5377 54.3754 26.9087C52.9259 25.2795 52.201 23.2265 52.201 20.7495C52.201 18.3618 52.9315 16.3423 54.3922 14.6909C55.853 13.0395 57.7096 12.2138 59.9622 12.2138C61.2556 12.2138 62.2983 12.4482 63.09 12.9168C63.8816 13.3854 64.4337 13.9322 64.7459 14.557V4.71584H68.526ZM82.3729 12.4481V16.398H81.8738C78.9522 16.398 77.4914 17.9935 77.4914 21.1846V28.9504H73.6109V12.649H76.1275C76.5739 12.649 76.9695 12.937 77.1068 13.362L77.4914 14.5519C77.6767 14.1657 78.1914 13.3082 79.092 12.8782C79.9926 12.4482 81.0375 12.4481 82.1079 12.4481H82.3729ZM84.5474 24.532C84.5474 23.1484 84.999 22.0382 85.9022 21.2014C86.8054 20.3646 87.9931 19.8346 89.4651 19.6115L93.6466 18.9754C94.4495 18.8639 94.8509 18.4734 94.8509 17.8039C94.8509 17.0675 94.5945 16.4706 94.0816 16.0131C93.5686 15.5556 92.7991 15.3268 91.7732 15.3268C90.7919 15.3268 90.0114 15.6002 89.4315 16.147C88.8517 16.6937 88.5172 17.4022 88.428 18.2725L84.9308 18.2391C85.087 16.7662 85.7406 14.7411 86.9895 13.7034C88.2383 12.6657 89.8218 12.1469 91.7399 12.1469C94.1038 12.1469 95.8489 12.7159 96.9752 13.8541C98.1015 14.9921 98.6645 16.4538 98.6645 18.2391V26.3395C98.6645 27.4107 98.7314 28.2809 98.8653 28.9504H96.7786C96.558 28.9504 96.3393 28.9099 96.1334 28.831C95.4414 28.5654 95.0953 28.1331 95.0953 27.5344C94.3235 28.8217 92.3419 29.4525 90.0671 29.4525C88.4169 29.4525 87.0843 28.9672 86.0696 27.9965C85.0548 27.0258 84.5474 25.8709 84.5474 24.532ZM90.8031 26.4065C92.0075 26.4065 92.9832 26.0773 93.7302 25.419C94.4774 24.7607 94.8509 23.684 94.8509 22.1889V21.4524L90.6024 22.0885C89.1527 22.334 88.428 23.0703 88.428 24.2977C88.428 24.8779 88.6398 25.3744 89.0636 25.7873C89.4873 26.2 90.0671 26.4065 90.8031 26.4065ZM110.574 8.54467C109.927 8.54467 109.364 8.72876 108.884 9.09697C108.405 9.46517 108.165 10.1067 108.165 11.0217V12.649H111.945V16.0299H108.165V28.9504H104.251V16.0299H101.408V12.649H102.524C103.478 12.649 104.251 11.8755 104.251 10.9213C104.251 9.11369 104.775 7.68552 105.823 6.63668C106.872 5.58785 108.243 5.06345 109.938 5.06345H111.945V8.54467H110.574ZM121.075 7.72843V12.7159H124.454V16.1636H121.075V23.7286C121.075 24.4427 121.243 24.9615 121.577 25.2851C121.912 25.6087 122.436 25.7705 123.149 25.7705H123.682V29.2182H122.112C120.596 29.2182 119.403 28.7887 118.533 27.9296C117.663 27.0704 117.228 25.8821 117.228 24.3647V16.1636H114.218V12.7159H115.054C115.879 12.7159 116.503 12.4816 116.927 12.013C117.351 11.5444 117.563 10.9307 117.563 10.172V7.72843H121.075ZM127.599 4.63859H131.378V14.6137C131.692 13.9887 132.34 13.4755 133.131 13.0069C133.924 12.5383 135.183 12.2344 136.477 12.2344C138.729 12.2344 140.529 12.9623 141.99 14.6137C143.451 16.265 143.939 18.3437 143.939 20.7315C143.939 23.2086 143.456 25.2023 142.006 26.8313C140.557 28.4603 138.538 29.3573 136.219 29.3573C135.127 29.3573 134.139 29.105 133.292 28.6364C132.445 28.1677 131.829 27.7351 131.378 27.2201C131.378 27.4824 131.308 27.7522 131.167 28.0298C130.903 28.5473 130.372 28.8732 129.791 28.8732H127.599V4.63859ZM138.831 24.532C139.656 23.5947 140.069 22.334 140.069 20.7495C140.069 19.1651 139.667 17.9211 138.865 17.0172C138.062 16.1135 137.003 15.6616 135.687 15.6616C134.415 15.6616 133.368 16.1135 132.543 17.0172C131.716 17.9211 131.304 19.1651 131.304 20.7495C131.304 22.3116 131.716 23.5613 132.543 24.4986C133.368 25.4358 134.415 25.9044 135.687 25.9044C136.981 25.9044 138.028 25.4469 138.831 24.532ZM147.729 16.4829H146.126V12.6207H149.986V12.649H151.577V28.9504H147.729V16.4829ZM147.863 8.69914C147.373 8.20821 147.127 7.61686 147.127 6.92507C147.127 6.23329 147.373 5.63636 147.863 5.13426C148.354 4.63216 148.945 4.3811 149.636 4.3811C150.35 4.3811 150.952 4.62657 151.443 5.11751C151.933 5.60846 152.179 6.21097 152.179 6.92507C152.179 7.61686 151.933 8.20821 151.443 8.69914C150.952 9.19009 150.35 9.43556 149.636 9.43556C148.945 9.43556 148.354 9.19009 147.863 8.69914ZM161.512 7.66149V12.649H164.89V16.0967H161.512V23.6617C161.512 24.3757 161.68 24.8946 162.014 25.2181C162.349 25.5418 162.873 25.7036 163.586 25.7036H164.119V29.1513H162.549C161.033 29.1513 159.839 28.7218 158.97 27.8626C158.099 27.0034 157.665 25.8151 157.665 24.2977V16.0967H154.654V12.649H155.491C156.316 12.649 156.94 12.4147 157.364 11.9461C157.788 11.4774 157.999 10.8637 157.999 10.105V7.66149H161.512Z" fill="black"/>
</g>
<defs>
<clipPath id="clip0_3_612">
<rect width="165" height="39" fill="white" transform="translate(0.603638 0.202759)"/>
</clipPath>
</defs>
</svg>
