<svg width="131" height="33" viewBox="0 0 131 33" fill="none" xmlns="http://www.w3.org/2000/svg">
<g clip-path="url(#clip0_3_616)">
<path fill-rule="evenodd" clip-rule="evenodd" d="M40.1371 23.4241C39.659 23.2412 39.3462 22.8557 39.3462 22.3416C39.3462 21.7181 39.8609 21.2048 40.4865 21.2048C40.6705 21.2048 40.8172 21.2411 40.9461 21.2962C41.7556 21.6632 42.6195 21.8831 43.6682 21.8831C45.5807 21.8831 46.4819 20.9662 46.4819 19.2046V18.7276C45.6538 19.7187 44.7532 20.3235 43.2637 20.3235C40.9646 20.3235 38.886 18.6541 38.886 15.7371V15.7007C38.886 12.7651 41.0011 11.1143 43.2637 11.1143C44.7898 11.1143 45.6908 11.7562 46.4447 12.5817V12.563C46.4447 11.8111 47.0702 11.1878 47.8426 11.1878C48.615 11.1878 49.2398 11.8111 49.2398 12.5817V18.9112C49.2398 20.6727 48.8176 21.9567 47.9893 22.7821C47.0702 23.6996 45.6538 24.1032 43.7418 24.1032C42.4355 24.1032 41.2954 23.8832 40.1371 23.4241ZM46.4819 15.7371V15.7007C46.4819 14.3611 45.4332 13.4256 44.0726 13.4256C42.7118 13.4256 41.6818 14.3611 41.6818 15.7007V15.7371C41.6818 17.0946 42.7118 18.0122 44.0726 18.0122C45.4332 18.0122 46.4819 17.0766 46.4819 15.7371Z" fill="black"/>
<path fill-rule="evenodd" clip-rule="evenodd" d="M40.1371 23.424C39.659 23.2412 39.3462 22.8556 39.3462 22.3415C39.3462 21.7181 39.8609 21.2047 40.4865 21.2047C40.6705 21.2047 40.8172 21.2411 40.9461 21.2961C41.7556 21.6631 42.6195 21.883 43.6682 21.883C45.5807 21.883 46.4819 20.9661 46.4819 19.2046V18.7276C45.6538 19.7187 44.7532 20.3234 43.2637 20.3234C40.9646 20.3234 38.886 18.654 38.886 15.7371V15.7006C38.886 12.765 41.0011 11.1142 43.2637 11.1142C44.7898 11.1142 45.6908 11.7561 46.4447 12.5816V12.563C46.4447 11.811 47.0702 11.1876 47.8426 11.1876C48.615 11.1876 49.2398 11.811 49.2398 12.5816V18.9111C49.2398 20.6727 48.8176 21.9566 47.9893 22.782C47.0702 23.6995 45.6538 24.1032 43.7418 24.1032C42.4355 24.1032 41.2954 23.8832 40.1371 23.424ZM46.4819 15.7371V15.7006C46.4819 14.361 45.4332 13.4255 44.0726 13.4255C42.7118 13.4255 41.6818 14.361 41.6818 15.7006V15.7371C41.6818 17.0945 42.7118 18.0121 44.0726 18.0121C45.4332 18.0121 46.4819 17.0766 46.4819 15.7371ZM50.8224 12.5816C50.8224 11.811 51.4473 11.1876 52.2203 11.1876C52.9926 11.1876 53.6174 11.811 53.6174 12.5816V13.0215C54.0227 12.0681 54.6841 11.1876 55.5121 11.1876C56.3768 11.1876 56.8729 11.7561 56.8729 12.5444C56.8729 13.2785 56.3947 13.7191 55.825 13.8476C54.4085 14.1782 53.6174 15.2601 53.6174 17.2415V19.8465C53.6174 20.617 52.9926 21.2411 52.2203 21.2411C51.4473 21.2411 50.8224 20.617 50.8224 19.8465V12.5816ZM56.5422 18.3055V18.2691C56.5422 16.1227 58.1785 15.1315 60.5148 15.1315C61.5076 15.1315 62.2248 15.2966 62.9241 15.535V15.3699C62.9241 14.2146 62.2063 13.572 60.8089 13.572C60.0366 13.572 59.4111 13.6826 58.8779 13.8476C58.7125 13.9025 58.6022 13.9212 58.4734 13.9212C57.8299 13.9212 57.3146 13.4255 57.3146 12.783C57.3146 12.288 57.6267 11.8662 58.0689 11.7005C58.9515 11.3705 59.9077 11.1876 61.2134 11.1876C62.7395 11.1876 63.8431 11.5911 64.5418 12.288C65.2776 13.0215 65.609 14.1047 65.609 15.4257V19.9016C65.609 20.6541 65.002 21.2411 64.2477 21.2411C63.4387 21.2411 62.9055 20.6727 62.9055 20.085V20.0665C62.2248 20.8191 61.2871 21.3139 59.9257 21.3139C58.0689 21.3139 56.5422 20.2507 56.5422 18.3055ZM62.9606 17.6636V17.168C62.4825 16.9481 61.8575 16.801 61.1762 16.801C59.9808 16.801 59.2457 17.278 59.2457 18.1592V18.1955C59.2457 18.9482 59.8713 19.3881 60.7717 19.3881C62.0781 19.3881 62.9606 18.6726 62.9606 17.6636ZM67.0992 12.5816C67.0992 11.811 67.7241 11.1876 68.4972 11.1876C69.2695 11.1876 69.895 11.811 69.895 12.5816V12.6923C70.5379 11.8662 71.3846 11.1142 72.8004 11.1142C74.0874 11.1142 75.0623 11.6825 75.577 12.6736C76.4416 11.6647 77.4717 11.1142 78.8138 11.1142C80.8924 11.1142 82.143 12.3616 82.143 14.7288V19.8465C82.143 20.617 81.5173 21.2411 80.7449 21.2411C79.9727 21.2411 79.347 20.617 79.347 19.8465V15.6457C79.347 14.3246 78.7586 13.6456 77.7107 13.6456C76.6621 13.6456 76.0186 14.3246 76.0186 15.6457V19.8465C76.0186 20.617 75.3937 21.2411 74.6208 21.2411C73.8483 21.2411 73.2228 20.617 73.2228 19.8465V15.6457C73.2228 14.3246 72.6351 13.6456 71.5865 13.6456C70.5379 13.6456 69.895 14.3246 69.895 15.6457V19.8465C69.895 20.617 69.2695 21.2411 68.4972 21.2411C67.7241 21.2411 67.0992 20.617 67.0992 19.8465V12.5816ZM83.6516 12.5816C83.6516 11.811 84.2766 11.1876 85.0496 11.1876C85.8218 11.1876 86.4476 11.811 86.4476 12.5816V12.6923C87.0903 11.8662 87.937 11.1142 89.3528 11.1142C90.6399 11.1142 91.6147 11.6825 92.1294 12.6736C92.9941 11.6647 94.0241 11.1142 95.3663 11.1142C97.4448 11.1142 98.6954 12.3616 98.6954 14.7288V19.8465C98.6954 20.617 98.0704 21.2411 97.2973 21.2411C96.5251 21.2411 95.8995 20.617 95.8995 19.8465V15.6457C95.8995 14.3246 95.3111 13.6456 94.2631 13.6456C93.2146 13.6456 92.5711 14.3246 92.5711 15.6457V19.8465C92.5711 20.617 91.9462 21.2411 91.1732 21.2411C90.4008 21.2411 89.776 20.617 89.776 19.8465V15.6457C89.776 14.3246 89.1875 13.6456 88.1389 13.6456C87.0903 13.6456 86.4476 14.3246 86.4476 15.6457V19.8465C86.4476 20.617 85.8218 21.2411 85.0496 21.2411C84.2766 21.2411 83.6516 20.617 83.6516 19.8465V12.5816ZM99.6158 18.3055V18.2691C99.6158 16.1227 101.253 15.1315 103.588 15.1315C104.581 15.1315 105.298 15.2966 105.997 15.535V15.3699C105.997 14.2146 105.281 13.572 103.882 13.572C103.11 13.572 102.485 13.6826 101.951 13.8476C101.786 13.9025 101.676 13.9212 101.547 13.9212C100.903 13.9212 100.388 13.4255 100.388 12.783C100.388 12.288 100.701 11.8662 101.142 11.7005C102.025 11.3705 102.981 11.1876 104.287 11.1876C105.814 11.1876 106.917 11.5911 107.616 12.288C108.351 13.0215 108.681 14.1047 108.681 15.4257V19.9016C108.681 20.6541 108.075 21.2411 107.322 21.2411C106.512 21.2411 105.979 20.6727 105.979 20.085V20.0665C105.298 20.8191 104.36 21.3139 103 21.3139C101.142 21.3139 99.6158 20.2507 99.6158 18.3055ZM106.034 17.6636V17.168C105.556 16.9481 104.93 16.801 104.25 16.801C103.054 16.801 102.319 17.278 102.319 18.1592V18.1955C102.319 18.9482 102.944 19.3881 103.845 19.3881C105.151 19.3881 106.034 18.6726 106.034 17.6636ZM110.172 12.5816C110.172 11.811 110.798 11.1876 111.57 11.1876C112.343 11.1876 112.967 11.811 112.967 12.5816V13.0215C113.372 12.0681 114.035 11.1876 114.863 11.1876C115.727 11.1876 116.223 11.7561 116.223 12.5444C116.223 13.2785 115.745 13.7191 115.174 13.8476C113.759 14.1782 112.967 15.2601 112.967 17.2415V19.8465C112.967 20.617 112.343 21.2411 111.57 21.2411C110.798 21.2411 110.172 20.617 110.172 19.8465V12.5816ZM117.07 9.02199C117.07 8.25145 117.694 7.62805 118.467 7.62805C119.24 7.62805 119.865 8.25145 119.865 9.02199V19.8465C119.865 20.617 119.24 21.2411 118.467 21.2411C117.694 21.2411 117.07 20.617 117.07 19.8465V9.02199ZM122.091 23.8646C121.685 23.7182 121.207 23.3875 121.207 22.7092C121.207 22.0301 121.741 21.571 122.311 21.571C122.531 21.571 122.661 21.6081 122.771 21.6445C123.009 21.7181 123.157 21.7551 123.36 21.7551C123.855 21.7551 124.095 21.6631 124.353 21.1676L124.445 20.9476L121.079 13.1686C121.006 12.985 120.932 12.7101 120.932 12.5266C120.932 11.7376 121.539 11.1876 122.311 11.1876C123.009 11.1876 123.414 11.5726 123.653 12.2324L125.787 17.957L127.847 12.2509C128.067 11.6647 128.471 11.1876 129.19 11.1876C129.906 11.1876 130.513 11.7376 130.513 12.4715C130.513 12.6923 130.439 13.0036 130.384 13.1322L126.945 21.3696C126.117 23.3691 125.291 24.1216 123.617 24.1216C122.991 24.1216 122.55 24.0302 122.091 23.8646Z" fill="black"/>
<path d="M15.8253 0.96521C7.41885 0.96521 0.603516 7.787 0.603516 16.2027H31.0473C31.0473 7.787 24.2324 0.96521 15.8253 0.96521Z" fill="#4CA385"/>
<path d="M15.8253 31.4402C24.2324 31.4402 31.0473 24.6179 31.0473 16.2028H0.603516C0.603516 24.6179 7.41885 31.4402 15.8253 31.4402Z" fill="#4CA385"/>
<g filter="url(#filter0_d_3_616)">
<path fill-rule="evenodd" clip-rule="evenodd" d="M18.8287 18.2681C18.677 18.2681 18.5272 18.3017 18.3898 18.3665C18.1829 18.464 18.0142 18.6275 17.9101 18.8314C17.8061 19.0353 17.7726 19.268 17.8149 19.4931C17.9047 19.9918 18.3733 20.3335 18.8799 20.3335H20.4746L21.3992 20.2037C19.9199 22.3763 17.3516 23.3756 14.5434 22.9346C12.2578 22.5751 10.2956 21.0275 9.46302 18.8651C7.58417 13.9563 11.1655 9.2697 15.8319 9.2697C18.2645 9.2697 20.3967 10.6952 21.6198 12.416V12.4534C21.7739 12.6803 22.0115 12.8369 22.2806 12.8889C22.5497 12.9409 22.8284 12.884 23.0558 12.7308C23.2674 12.5843 23.4157 12.3629 23.4709 12.1114C23.5261 11.8598 23.4839 11.5966 23.3531 11.3749H23.3608C22.4968 10.0202 21.2837 8.92372 19.8494 8.20096C18.4153 7.47821 16.8129 7.1559 15.2111 7.26798C10.7636 7.56792 7.16201 11.2137 6.90628 15.6706C6.60901 20.8579 10.7195 25.0934 15.8319 25.0934C17.1078 25.0984 18.3697 24.827 19.5309 24.2981C20.6923 23.7691 21.7256 22.9949 22.5599 22.0286L22.366 23.1161V24.0982C22.366 24.6041 22.7067 25.0738 23.2057 25.1636C23.3548 25.1918 23.5083 25.1867 23.6552 25.1488C23.8023 25.1108 23.939 25.0408 24.0559 24.9438C24.1728 24.8469 24.2668 24.7253 24.3314 24.5878C24.3958 24.4502 24.4293 24.3001 24.4293 24.1482V18.2681H18.8287Z" fill="white"/>
</g>
</g>
<defs>
<filter id="filter0_d_3_616" x="6.36979" y="7.24622" width="18.5807" height="19.369" filterUnits="userSpaceOnUse" color-interpolation-filters="sRGB">
<feFlood flood-opacity="0" result="BackgroundImageFix"/>
<feColorMatrix in="SourceAlpha" type="matrix" values="0 0 0 0 0 0 0 0 0 0 0 0 0 0 0 0 0 0 127 0" result="hardAlpha"/>
<feOffset dy="0.912323"/>
<feGaussianBlur stdDeviation="0.260663"/>
<feColorMatrix type="matrix" values="0 0 0 0 0 0 0 0 0 0 0 0 0 0 0 0 0 0 0.15 0"/>
<feBlend mode="normal" in2="BackgroundImageFix" result="effect1_dropShadow_3_616"/>
<feBlend mode="normal" in="SourceGraphic" in2="effect1_dropShadow_3_616" result="shape"/>
</filter>
<clipPath id="clip0_3_616">
<rect width="130" height="32" fill="white" transform="translate(0.603516 0.202759)"/>
</clipPath>
</defs>
</svg>
