<svg width="131" height="20" viewBox="0 0 131 20" fill="none" xmlns="http://www.w3.org/2000/svg">
<g clip-path="url(#clip0_3_618)">
<path fill-rule="evenodd" clip-rule="evenodd" d="M3.83511 19.1872V16.0424H18.0169V19.1872H3.83511ZM15.0046 3.46307H6.84612L10.926 9.09755L15.0046 3.46307ZM21.1684 0.318237L10.926 14.47L0.683594 0.318237H21.1684Z" fill="#00B3E6"/>
<path d="M33.6681 16.0436V10.9962H28.8174V16.0436H25.8931V3.46429H28.8174V8.38726H33.6681V3.46167H36.5925V16.041L33.6681 16.0436Z" fill="black"/>
<path d="M40.2822 16.0434V3.46411H48.27V6.13853H43.2066V8.38708H47.817V10.9278H43.2066V13.3821H48.27V16.0434H40.2822Z" fill="black"/>
<path d="M51.7539 16.0434V3.46411H54.6769V13.3847H59.7351V16.0461L51.7539 16.0434Z" fill="black"/>
<path d="M62.1895 16.0434V3.46411H65.1177V13.3847H70.1746V16.0461L62.1895 16.0434Z" fill="black"/>
<path d="M78.4235 16.2492C74.5183 16.2492 72.0247 13.4516 72.0247 9.76038C72.0247 6.06914 74.6391 3.25452 78.5443 3.25452C82.4496 3.25452 84.9432 6.05341 84.9432 9.76038C84.9432 13.4674 82.3117 16.2492 78.4235 16.2492ZM78.4721 5.86472C76.4775 5.86472 75.1355 7.49479 75.1355 9.76038C75.1355 12.026 76.4775 13.6574 78.4721 13.6574C80.4668 13.6574 81.8101 12.0089 81.8101 9.76038C81.8101 7.51183 80.4707 5.86472 78.4721 5.86472Z" fill="black"/>
<path d="M91.2619 16.2492C89.8345 16.2492 88.1104 15.6832 87.0139 14.9612L87.8215 12.3182C88.8365 13.0559 90.1615 13.5368 91.3486 13.5368C92.3807 13.5368 92.7759 13.0559 92.7759 12.4387C92.7759 11.7836 92.449 11.3393 90.5226 10.5676C88.3034 9.67521 87.5326 8.38714 87.5326 6.87631C87.5326 5.04183 89.0283 3.25452 91.9697 3.25452C93.3458 3.25452 94.7575 3.73541 95.4967 4.23334L94.7548 6.84224C94.0313 6.34431 92.8626 5.81231 91.9671 5.81231C90.9008 5.81231 90.4714 6.31024 90.4714 6.82521C90.4714 7.64941 91.107 7.92459 92.6906 8.59286C95.0463 9.58872 95.7515 10.7222 95.7515 12.3352C95.7515 14.344 94.29 16.2492 91.2619 16.2492Z" fill="black"/>
<path d="M98.8875 16.0434V3.46411H101.812V16.0434H98.8875Z" fill="black"/>
<path d="M116.39 8.97155V14.9795C114.945 15.8357 113.289 16.2752 111.608 16.2492C107.91 16.2492 104.986 13.6063 104.986 9.76038C104.986 5.91452 107.944 3.25452 111.763 3.25452C113.415 3.25452 114.738 3.68431 115.994 4.33686L114.773 6.68762C113.904 6.23141 112.939 5.99008 111.957 5.98396C109.445 5.98396 108.105 7.5459 108.105 9.76038C108.105 12.1636 109.721 13.6574 111.781 13.6574C112.71 13.6574 113.175 13.5539 113.639 13.3141V11.4599H111.109V8.97024L116.39 8.97155Z" fill="black"/>
<path d="M130.278 16.2832L122.675 9.46937V16.0434H119.75V3.28979L120.144 3.22034L127.645 9.98303V3.46144H130.569V16.2321L130.278 16.2832Z" fill="black"/>
</g>
<defs>
<clipPath id="clip0_3_618">
<rect width="130" height="19" fill="white" transform="translate(0.603516 0.202759)"/>
</clipPath>
</defs>
</svg>
