<svg width="66" height="30" viewBox="0 0 66 30" fill="none" xmlns="http://www.w3.org/2000/svg">
<g clip-path="url(#clip0_3_622)">
<path d="M32.2543 6.10486C33.828 6.10486 35.1038 4.84878 35.1038 3.29932C35.1038 1.74986 33.828 0.493774 32.2543 0.493774C30.6804 0.493774 29.4047 1.74986 29.4047 3.29932C29.4047 4.84878 30.6804 6.10486 32.2543 6.10486Z" fill="#FF7E61"/>
<path d="M8.18164 15.1468L15.4915 7.94989C15.6173 7.82599 15.5279 7.61124 15.3489 7.61124H9.44279C9.38968 7.61124 9.33938 7.63328 9.30023 7.6691L5.49426 11.4162V1.57341C5.49426 1.433 5.34884 1.33664 5.21741 1.38895L1.03954 3.05465C0.964032 3.08494 0.913696 3.15652 0.913696 3.23912V22.6246C0.913696 22.8063 1.0647 22.955 1.24927 22.955H5.15868C5.34325 22.955 5.49426 22.8063 5.49426 22.6246V18.8775L9.58261 22.9C9.61903 22.9357 9.67213 22.9578 9.72524 22.9578L15.6341 22.955C15.8131 22.955 15.9026 22.7403 15.7767 22.6164L8.18164 15.1468Z" fill="black"/>
<path d="M30.2987 22.955H34.2081C34.3927 22.955 34.5437 22.8064 34.5437 22.6246V7.9444C34.5437 7.76271 34.3927 7.61401 34.2081 7.61401H30.2987C30.1141 7.61401 29.9631 7.76271 29.9631 7.9444V22.6274C29.9659 22.8091 30.1141 22.955 30.2987 22.955Z" fill="black"/>
<path fill-rule="evenodd" clip-rule="evenodd" d="M58.0002 7.63065C61.8425 7.88948 64.9549 10.9538 65.2234 14.734C65.5394 19.2217 61.9375 22.9551 57.4521 22.9579C56.3056 22.9579 55.2177 22.7101 54.239 22.2723V27.2419C54.239 27.3768 54.1579 27.498 54.0293 27.5476L49.9353 29.1802C49.8038 29.2325 49.6584 29.1389 49.6584 28.9958V15.2846H49.6613C49.6613 10.8657 53.4476 7.32228 58.0002 7.63065ZM54.239 15.2846C54.239 17.0302 55.6763 18.4481 57.4521 18.4481C59.225 18.4481 60.6624 17.0302 60.6624 15.2846C60.6624 13.5391 59.225 12.1212 57.4521 12.1212C55.6763 12.1212 54.239 13.5391 54.239 15.2846Z" fill="black"/>
<path d="M42.2647 11.3088C42.2787 11.3088 42.2955 11.3088 42.3094 11.3116C43.0617 11.2814 43.7384 11.7549 44.2894 12.4955C44.3788 12.6167 44.541 12.6579 44.6808 12.6029L47.8296 11.3557C48.003 11.2869 48.0869 11.0913 48.0142 10.9207C47.2228 9.04292 44.815 7.61401 42.262 7.61401C38.9286 7.61401 36.2216 9.701 36.2216 12.2753C36.2216 13.6546 37.0382 14.8523 38.1596 15.6342C39.1663 16.3363 40.3688 16.7906 41.5544 17.0934C41.574 17.0989 41.5936 17.1038 41.6131 17.1085C41.6327 17.1133 41.6523 17.1182 41.6719 17.1237C43.2714 17.4734 43.5007 17.8891 43.5007 18.2994C43.5007 18.8335 42.8436 19.2657 42.0354 19.2657C41.1993 19.318 40.4582 18.7536 39.8765 17.8946C39.7899 17.7652 39.6193 17.7184 39.4739 17.7762L36.3614 19.0317C36.1909 19.1005 36.1126 19.2877 36.1769 19.4584C37.069 21.8372 39.4739 22.9605 42.0354 22.9605C45.3687 22.9605 48.0757 20.8764 48.0757 18.2994C48.0757 17.7376 47.9471 17.2008 47.7094 16.7025C47.4829 16.2261 46.8928 15.213 45.366 14.5109C44.9854 14.3367 44.3105 14.1049 43.6015 13.8615C42.6853 13.5468 41.7123 13.2126 41.244 12.9581C40.9588 12.8039 40.7966 12.5478 40.7966 12.2753C40.7966 11.7411 41.4565 11.3088 42.2647 11.3088Z" fill="black"/>
<path d="M28.3496 7.88661C28.4028 7.7572 28.3049 7.61401 28.1623 7.61401H25.2121C20.9196 7.61401 17.438 11.0418 17.438 15.268V22.6246C17.438 22.8064 17.589 22.955 17.7736 22.955H21.6829C21.8675 22.955 22.0157 22.8091 22.0157 22.6274V15.268C22.0157 13.528 23.4475 12.1183 25.2149 12.1183H26.4508C26.5319 12.1183 26.6047 12.0715 26.6354 11.9971L28.3496 7.88661Z" fill="black"/>
</g>
<defs>
<clipPath id="clip0_3_622">
<rect width="65" height="29" fill="white" transform="translate(0.603638 0.202759)"/>
</clipPath>
</defs>
</svg>
