<svg width="130" height="30" viewBox="0 0 130 30" fill="none" xmlns="http://www.w3.org/2000/svg">
<g clip-path="url(#clip0_611_370)">
<path fill-rule="evenodd" clip-rule="evenodd" d="M101.148 20.6878C104.498 20.6878 107.224 18.0249 107.224 14.7519C107.224 11.4787 104.498 8.81592 101.148 8.81592C97.7979 8.81592 95.0721 11.4787 95.0721 14.7519C95.0721 18.0249 97.7979 20.6878 101.148 20.6878ZM107.224 0H107.388H110.102V23.52H107.224V21.1716C105.562 22.6759 103.42 23.4999 101.148 23.4999C96.2108 23.4999 92.1941 19.5755 92.1941 14.7519C92.1941 9.92796 96.2108 6.00372 101.148 6.00372C103.42 6.00372 105.562 6.82764 107.224 8.33202V0ZM41.4542 20.5841C44.8043 20.5841 47.5298 17.9213 47.5298 14.6482C47.5298 11.3752 44.8043 8.71242 41.4542 8.71242C38.1039 8.71242 35.3784 11.3752 35.3784 14.6482C35.3784 17.9213 38.1039 20.5841 41.4542 20.5841ZM35.3784 8.2287C37.0396 6.72432 39.1821 5.90027 41.4542 5.90027C46.3913 5.90027 50.4082 9.82464 50.4082 14.6482C50.4082 19.4719 46.3913 23.3963 41.4542 23.3963C39.1821 23.3963 37.0396 22.5724 35.3784 21.0679V29.4H32.5V5.88H35.3784V8.2287ZM55.9002 13.2824C56.548 10.6241 58.9618 8.71542 61.7151 8.71542C64.4325 8.71542 66.7087 10.5834 67.3153 13.2824H55.9002ZM61.7151 5.88C56.8518 5.88 52.8954 9.83682 52.8954 14.7C52.8954 19.5634 56.8518 23.52 61.7151 23.52C64.4385 23.52 66.938 22.5004 68.5738 20.7226L69.4236 19.7984L69.5331 19.6792L69.414 19.5692L67.5663 17.8696L67.4471 17.7598L67.337 17.879L66.4872 18.8033C65.4032 19.9813 63.6194 20.6848 61.7151 20.6848C58.9618 20.6848 56.5481 18.776 55.9002 16.1176H70.3059V14.7C70.3059 9.7542 66.5323 5.88 61.7151 5.88ZM127.121 14.7001C127.121 18 124.396 20.6847 121.046 20.6847C117.696 20.6847 114.97 18 114.97 14.7001C114.97 11.4 117.696 8.7153 121.046 8.7153C124.396 8.7153 127.121 11.4 127.121 14.7001ZM121.046 5.88C116.109 5.88 112.092 9.83664 112.092 14.7001C112.092 19.5634 116.109 23.52 121.046 23.52C125.983 23.52 130 19.5634 130 14.7001C130 9.83664 125.983 5.88 121.046 5.88ZM81.0008 5.88C79.0009 5.88 77.0954 6.6393 75.5956 8.02608V5.88H72.7934V23.52H75.5956V14.518C75.5956 11.3063 78.0205 8.69328 81.0008 8.69328C83.9818 8.69328 86.4073 11.3063 86.4073 14.518V23.52H89.2089V14.518C89.2089 9.75504 85.5268 5.88 81.0008 5.88Z" fill="black"/>
<path fill-rule="evenodd" clip-rule="evenodd" d="M0 16.7999H13.5416V30L27.0833 16.7999V3.59998H13.5416L0 16.7999Z" fill="#FF4876"/>
</g>
<defs>
<clipPath id="clip0_611_370">
<rect width="130" height="30" fill="white"/>
</clipPath>
</defs>
</svg>
