<svg width="2652" height="1712" viewBox="0 0 2652 1712" fill="none" xmlns="http://www.w3.org/2000/svg">
<path d="M1779.14 958.227C1779.14 905.11 1836.64 871.913 1882.64 898.471L2262.14 1117.58C2308.14 1144.13 2308.14 1210.53 2262.14 1237.09L1882.64 1456.19C1836.64 1482.75 1779.14 1449.55 1779.14 1396.44L1779.14 958.227Z" fill="#FFE090"/>
<g style="mix-blend-mode:multiply">
<path d="M1922.14 835.227C1922.14 782.11 1979.64 748.913 2025.64 775.471L2405.14 994.576C2451.14 1021.13 2451.14 1087.53 2405.14 1114.09L2025.64 1333.19C1979.64 1359.75 1922.14 1326.55 1922.14 1273.44L1922.14 835.227Z" fill="#FF8C4C"/>
</g>
<path d="M872.91 754.204C872.91 807.32 815.41 840.518 769.41 813.96L389.909 594.855C343.909 568.297 343.909 501.902 389.909 475.344L769.41 256.239C815.41 229.681 872.91 262.879 872.91 315.995L872.91 754.204Z" fill="#FF77D9"/>
<g style="mix-blend-mode:multiply">
<path d="M729.91 877.204C729.91 930.32 672.41 963.518 626.41 936.96L246.909 717.855C200.909 691.297 200.909 624.902 246.909 598.344L626.41 379.239C672.41 352.681 729.91 385.879 729.91 438.995L729.91 877.204Z" fill="#6640FF"/>
</g>
</svg>
